<svg width="21" height="23" viewBox="0 0 21 23" fill="none" xmlns="http://www.w3.org/2000/svg">
<path d="M19.25 19.1667L17.5 21.0833L12.25 15.3333V13.4167H14L19.25 19.1667Z" fill="black"/>
<path d="M7.875 15.3333C4.4625 15.3333 1.75 12.3625 1.75 8.625C1.75 4.8875 4.4625 1.91667 7.875 1.91667C11.2875 1.91667 14 4.8875 14 8.625C14 12.3625 11.2875 15.3333 7.875 15.3333ZM7.875 3.83333C5.425 3.83333 3.5 5.94167 3.5 8.625C3.5 11.3083 5.425 13.4167 7.875 13.4167C10.325 13.4167 12.25 11.3083 12.25 8.625C12.25 5.94167 10.325 3.83333 7.875 3.83333Z" fill="black"/>
<path d="M11.0458 12.8429L11.6646 12.1653L13.8298 14.5374L13.211 15.2149L11.0458 12.8429Z" fill="black"/>
</svg>
